# xmcd
#
# Track frame offsets:
#	182
#	18320
#	40320
#	67760
#
# Disc length: 1192 seconds
#
# Revision: 1
# Processed by: cddbd v1.5.2PL0 Copyright (c) Steve Scherf et al.
# Submitted via: EasyCDDAExtractor 11.0.2.1
#
DISCID=2704a604
DTITLE=Derelect Camp - Move It In Move It Out (Phat Radio) (1997)
DYEAR=1997
DGENRE=Country
TTITLE0=Move It In Move It Out (Phat Radio)
TTITLE1=Move It In Move It Out (Phat Remix)
TTITLE2=Move It In Move It Out (Phat Mix)
TTITLE3=Move It In Move It Out (Phat Nitty Fritty Mix)
EXTD=YEAR: 2005
EXTT0=
EXTT1=
EXTT2=
EXTT3=
PLAYORDER=
